<?xml version="1.0" encoding="utf-8"?>
<!-- Generator: Adobe Illustrator 18.1.1, SVG Export Plug-In . SVG Version: 6.00 Build 0)  -->
<svg version="1.1" id="Layer_1" xmlns="http://www.w3.org/2000/svg" xmlns:xlink="http://www.w3.org/1999/xlink" x="0px" y="0px"
	 viewBox="0 0 534.8139 70.44" enable-background="new 0 0 534.8139 70.44" xml:space="preserve">
<g>
	<g>
		<path fill="#1D1D1B" d="M62.65908,17.91556h-0.15179H48.25918h-0.15179c-1.14697,0-2.0777,0.9292-2.0777,2.07715v1.52246
			c0.00073,0.00214,0.00128,0.00446,0.00201,0.00659v10.4682c-0.00073,0.00214-0.00128,0.00446-0.00201,0.00659v1.51862
			c0,1.14691,0.93073,2.07709,2.0777,2.07709h0.15179h14.24811h0.15179c1.14703,0,2.07769-0.93018,2.07769-2.07709V19.99271
			C64.73678,18.84476,63.80612,17.91556,62.65908,17.91556z"/>
		<path fill="#1D1D1B" d="M35.0131,34.8628c0.87111-0.4468,1.6197-1.0727,2.2457-1.8779c0.6259-0.8037,1.1171-1.7427,1.476-2.8154
			c0.3511-1.0572,0.5283-2.2232,0.5337-3.4981c-0.0054-1.3203-0.2046-2.5107-0.6011-3.5693
			c-0.4028-1.0737-0.9619-2.0005-1.6762-2.7832c-0.71581-0.7818-1.5318-1.3853-2.4478-1.8106
			c-0.9165-0.4238-1.8667-0.6367-2.8491-0.6367l-12.0015-0.1064v17.768h12.4038C33.1689,35.5332,34.1411,35.3096,35.0131,34.8628z"
			/>
		<path fill="#1D1D1B" d="M79.5854,0H3.6587C1.6381,0,0,1.6382,0,3.6577v63.1241C0,68.8013,1.6381,70.44,3.6587,70.44h75.9267
			c2.02,0,3.6582-1.6387,3.6582-3.6582V3.6577C83.2436,1.6382,81.6054,0,79.5854,0z M71.9101,38.6592
			c0,2.021-1.47215,3.51515-3.4975,3.6587l0,0v16.4756h-7.3521V42.3179h-18.166c-1.4414,0-2.688-0.8335-3.2837-2.0449
			c0,0,0,0,0.0068-0.062c-0.3818,0.2329-0.7763,0.4507-1.185,0.6523c-1.7666,0.8721-3.7212,1.3081-5.8667,1.3081H19.6928V58.731
			h-7.5097V11.128h19.9804c2.1455,0,4.1231,0.4472,5.9336,1.3408c0.5088,0.251,0.95419,0.60892,1.4654,0.8198l0.0424-0.0425
			c0.5938-1.2173,1.8443-2.0566,3.2896-2.0566h25.3569c2.0205,0,3.6587,1.6377,3.6587,3.6582V38.6592z"/>
	</g>
	<g>
		<path fill="#1D1D1B" d="M101.228,58.6079V11.2686h19.6025c2.044,0,3.9224,0.4336,5.6343,1.3003
			c1.71049,0.8667,3.189,2,4.43359,3.4004c1.24411,1.4004,2.21091,2.9897,2.90041,4.7671
			c0.689,1.7788,1.03369,3.5786,1.03369,5.4008c0,1.9566-0.32329,3.834-0.9668,5.6343
			c-0.64499,1.8003-1.56689,3.3902-2.76709,4.7671c-1.20021,1.3784-2.6338,2.4902-4.3008,3.334
			c-1.6665,0.8447-3.5234,1.2666-5.5674,1.2666h-15.4018v17.4687H101.228z M105.8286,37.0054h15.1352
			c1.37749,0,2.6338-0.2998,3.7671-0.8999c1.1338-0.6001,2.1006-1.4004,2.9004-2.4004c0.8003-1,1.4224-2.1557,1.8672-3.4673
			c0.4438-1.3105,0.6665-2.6772,0.6665-4.1006c0-1.4668-0.2563-2.8554-0.7666-4.167c-0.51169-1.3105-1.2002-2.4555-2.06689-3.434
			c-0.8667-0.9771-1.8901-1.7437-3.0674-2.3003c-1.1782-0.5552-2.41161-0.8335-3.7002-0.8335h-14.7353V37.0054z"/>
		<path fill="#1D1D1B" d="M141.49899,16.6026V9.9351h4.53421v6.6675H141.49899z M141.49899,58.6079V23.8702h4.53421v34.7377
			H141.49899z"/>
		<path fill="#1D1D1B" d="M155.96721,9.9351h4.53369v40.8057c0,1.289,0.3555,2.3007,1.06689,3.0332
			c0.71049,0.7343,1.711,1.1005,3.0005,1.1005c0.4888,0,1.06691-0.0664,1.7339-0.2001c0.66649-0.1329,1.28859-0.3106,1.8667-0.5333
			l0.80031,3.667c-0.84521,0.3565-1.87842,0.6455-3.10062,0.8672c-1.2231,0.2217-2.27829,0.333-3.16699,0.333
			c-2.0898,0-3.7339-0.5879-4.9341-1.7666c-1.20021-1.1767-1.80029-2.834-1.80029-4.9677V9.9351z"/>
		<path fill="#1D1D1B" d="M188.3051,59.2759c-2.53371,0-4.8569-0.4785-6.9677-1.4336c-2.11191-0.956-3.93411-2.2558-5.4673-3.9013
			c-1.53371-1.6436-2.72371-3.5557-3.56741-5.7339c-0.8447-2.1773-1.26659-4.4673-1.26659-6.8677
			c0-2.4439,0.43311-4.7559,1.29979-6.9341c0.8667-2.1777,2.06691-4.0893,3.6006-5.7344c1.53371-1.644,3.3559-2.9555,5.4673-3.9336
			c2.11081-0.9775,4.4111-1.4672,6.90131-1.4672c2.4888,0,4.78911,0.4897,6.90089,1.4672
			c2.1104,0.9781,3.93359,2.2896,5.4673,3.9336c1.53371,1.6451,2.73392,3.5567,3.6006,5.7344
			c0.8667,2.1782,1.2998,4.4902,1.2998,6.9341c0,2.4004-0.43311,4.6904-1.2998,6.8677c-0.86668,2.1782-2.06689,4.0903-3.6006,5.7339
			c-1.53371,1.6455-3.3569,2.9453-5.4673,3.9013C193.09421,58.7974,190.7939,59.2759,188.3051,59.2759z M175.70309,41.4063
			c0,1.9565,0.32181,3.7671,0.9668,5.4341c0.644,1.6665,1.53371,3.1338,2.66701,4.4004c1.13379,1.2666,2.4673,2.2558,4.0005,2.9668
			c1.53369,0.7119,3.16739,1.0664,4.9008,1.0664c1.73338,0,3.36719-0.3663,4.90089-1.0996c1.5332-0.7334,2.8775-1.7334,4.03369-3
			c1.1553-1.2671,2.06691-2.7447,2.7339-4.4341c0.6665-1.689,1-3.5113,1-5.4678c0-1.9106-0.3335-3.7222-1-5.4341
			c-0.66699-1.7104-1.5786-3.2002-2.7339-4.4673c-1.15619-1.2666-2.4897-2.2666-4.00049-3
			c-1.5117-0.7334-3.1338-1.1001-4.8672-1.1001c-1.73381,0-3.36711,0.3667-4.9008,1.1001
			c-1.53371,0.7334-2.8672,1.7447-4.0005,3.0337c-1.1338,1.2896-2.03369,2.7901-2.7007,4.5005
			C176.03659,37.6172,175.70309,39.4507,175.70309,41.4063z"/>
		<path fill="#1D1D1B" d="M229.24309,56.9419c-0.26659,0.1328-0.65619,0.3106-1.16649,0.5332
			c-0.5117,0.2227-1.1001,0.4453-1.76711,0.666c-0.6665,0.2237-1.42281,0.4239-2.26711,0.6006
			c-0.8447,0.1768-1.7334,0.2666-2.6669,0.2666c-0.97809,0-1.9117-0.1328-2.80028-0.4004
			c-0.88971-0.2656-1.66701-0.6767-2.33351-1.2324c-0.66701-0.5556-1.20021-1.2558-1.6001-2.1015
			c-0.40039-0.8438-0.60011-1.8213-0.60011-2.9336V27.4707h-4.8008v-3.6005h4.8008V12.1353h4.53372v11.7349h8.00089v3.6005h-8.00089
			v23.604c0.08829,1.2891,0.53358,2.2325,1.33348,2.833c0.8002,0.6006,1.75531,0.9004,2.8671,0.9004
			c1.2886,0,2.42241-0.2099,3.40042-0.6337c0.97708-0.4219,1.60008-0.7217,1.86668-0.9004L229.24309,56.9419z"/>
		<path fill="#1D1D1B" d="M252.77879,58.6079V11.2686h19.60249c2.04401,0,3.92291,0.4336,5.63382,1.3003
			c1.71088,0.8667,3.18948,2,4.4346,3.4004c1.24307,1.4004,2.2099,2.9897,2.90039,4.7671
			c0.68839,1.7788,1.0332,3.5786,1.0332,5.4008c0,1.9566-0.3233,3.834-0.9668,5.6343c-0.64462,1.8003-1.56741,3.3902-2.76761,4.7671
			c-1.19919,1.3784-2.63281,2.4902-4.2998,3.334c-1.66699,0.8447-3.5235,1.2666-5.56738,1.2666h-15.40231v17.4687H252.77879z
			 M257.37939,37.0054h15.13571c1.37698,0,2.63278-0.2998,3.7666-0.8999c1.13379-0.6001,2.10059-1.4004,2.90039-2.4004
			s1.42191-2.1557,1.86719-3.4673c0.4433-1.3105,0.66699-2.6772,0.66699-4.1006c0-1.4668-0.2569-2.8554-0.76758-4.167
			c-0.51071-1.3105-1.2002-2.4555-2.06641-3.434c-0.86719-0.9771-1.88971-1.7437-3.06741-2.3003
			c-1.17767-0.5552-2.4111-0.8335-3.7002-0.8335h-14.73529V37.0054z"/>
		<path fill="#1D1D1B" d="M310.38519,27.8711c-3.06741,0.0894-5.73441,0.9331-8.00098,2.5332
			c-2.26752,1.6006-3.86713,3.8008-4.80072,6.6011v21.6025h-4.53421V23.8702h4.26761v8.3344
			c1.2002-2.4438,2.77731-4.4775,4.7334-6.1006c1.95599-1.622,4.06729-2.4336,6.3349-2.4336c0.39941,0,0.7764,0,1.13281,0
			c0.3555,0,0.64459,0.023,0.86719,0.0665V27.8711z"/>
		<path fill="#1D1D1B" d="M331.65469,59.2759c-2.5332,0-4.8671-0.4785-7.00092-1.4336c-2.13379-0.956-3.97849-2.2676-5.53418-3.9346
			c-1.55661-1.6669-2.7666-3.5888-3.63382-5.7675c-0.86618-2.1773-1.29977-4.5108-1.29977-7.001
			c0-2.4439,0.43359-4.7441,1.29977-6.9009c0.86722-2.1553,2.07721-4.0444,3.63382-5.6675
			c1.55569-1.622,3.38962-2.9106,5.50101-3.8672c2.11029-0.955,4.43359-1.4335,6.96768-1.4335c2.5332,0,4.8555,0.4785,6.9678,1.4335
			c2.11041,0.9566,3.92191,2.2569,5.43359,3.9009c1.5108,1.645,2.68951,3.5337,3.53421,5.6675
			c0.84369,2.1333,1.2666,4.4004,1.2666,6.8008c0,0.3564-0.01172,0.7114-0.0332,1.0669c-0.0235,0.3559-0.0567,0.6001-0.10062,0.7334
			h-29.66989c0.13281,1.8667,0.56641,3.5898,1.2998,5.1675c0.7334,1.5781,1.66699,2.9443,2.80081,4.1005
			c1.13281,1.1563,2.4433,2.0567,3.93359,2.7002c1.48822,0.6456,3.07709,0.9668,4.76749,0.9668
			c1.1553,0,2.28812-0.1552,3.40042-0.4668c1.11038-0.3105,2.13379-0.7334,3.06638-1.2666
			c0.93362-0.5332,1.76761-1.1894,2.50101-1.9668c0.7334-0.7773,1.2998-1.6337,1.7002-2.5673l3.93362,1.0673
			c-0.5332,1.2891-1.29001,2.4561-2.2666,3.5c-0.97852,1.045-2.1123,1.9571-3.40042,2.7334
			c-1.28998,0.7784-2.71188,1.378-4.26758,1.7998C334.8989,59.063,333.29929,59.2759,331.65469,59.2759z M344.45648,39.4058
			c-0.13278-1.8667-0.56638-3.5674-1.2998-5.1006c-0.7334-1.5337-1.66699-2.8555-2.80078-3.9673
			c-1.13382-1.1108-2.45599-1.9775-3.9668-2.6006c-1.51172-0.6215-3.1123-0.9331-4.80081-0.9331
			c-1.6904,0-3.29001,0.3116-4.80069,0.9331c-1.51181,0.6231-2.83401,1.4898-3.9668,2.6006
			c-1.13382,1.1118-2.0459,2.4453-2.73441,4.0005c-0.68951,1.5567-1.09961,3.2451-1.2334,5.0674H344.45648z"/>
		<path fill="#1D1D1B" d="M367.25922,59.2759c-2.71094,0-5.35641-0.4453-7.93362-1.334
			c-2.5791-0.8886-4.80069-2.1777-6.66791-3.8672l2.06741-3.0673c1.95499,1.6005,3.94431,2.7998,5.9668,3.6005
			c2.0224,0.8008,4.18939,1.2002,6.50089,1.2002c2.80081,0,5.03421-0.5673,6.7012-1.7002c1.66702-1.1337,2.5-2.7441,2.5-4.8339
			c0-0.9776-0.22269-1.7891-0.66599-2.4336c-0.44531-0.6441-1.10062-1.211-1.9678-1.7007
			c-0.86621-0.4883-1.95599-0.9219-3.2666-1.2998c-1.31149-0.3775-2.83401-0.7671-4.56738-1.167
			c-2-0.4888-3.73431-0.9771-5.20111-1.4668c-1.4668-0.4888-2.6778-1.044-3.63382-1.667
			c-0.95609-0.6221-1.66699-1.3887-2.13278-2.3003c-0.4668-0.9106-0.7002-2.0557-0.7002-3.4336
			c0-1.7339,0.34369-3.2671,1.0332-4.6006c0.68839-1.3335,1.62198-2.4341,2.79977-3.3008c1.1777-0.8667,2.5556-1.5219,4.1347-1.9668
			c1.57721-0.4438,3.25491-0.6669,5.03323-0.6669c2.66699,0,5.08987,0.4335,7.26859,1.3002
			c2.17679,0.8667,3.93359,2.0118,5.2666,3.4341l-2.2002,2.667c-1.28912-1.3335-2.85641-2.334-4.70023-3.0005
			c-1.8457-0.667-3.76758-1-5.76758-1c-1.2002,0-2.31152,0.1226-3.33401,0.3667c-1.02341,0.2447-1.92279,0.6333-2.7002,1.1665
			c-0.77829,0.5337-1.38962,1.2119-1.83389,2.0337c-0.4444,0.8233-0.66611,1.7901-0.66611,2.9004
			c0,0.9336,0.1553,1.69,0.4668,2.2671c0.3096,0.5781,0.82129,1.0781,1.5332,1.5c0.71002,0.4233,1.61038,0.8003,2.7002,1.1338
			c1.0889,0.333,2.41119,0.6782,3.96683,1.0332c2.22269,0.5337,4.17776,1.0669,5.86816,1.6006
			c1.68851,0.5332,3.10062,1.1562,4.2334,1.8667c1.13382,0.7114,1.98932,1.5781,2.56741,2.6001
			c0.57709,1.0234,0.86621,2.2671,0.86621,3.7339c0,3.2011-1.22272,5.7343-3.66702,7.6015
			C374.6821,58.3423,371.39398,59.2759,367.25922,59.2759z"/>
		<path fill="#1D1D1B" d="M403.2641,59.2759c-2.5332,0-4.86722-0.4785-7.00101-1.4336c-2.1337-0.956-3.97852-2.2676-5.53409-3.9346
			c-1.5567-1.6669-2.7666-3.5888-3.63379-5.7675c-0.86621-2.1773-1.29984-4.5108-1.29984-7.001
			c0-2.4439,0.43362-4.7441,1.29984-6.9009c0.86719-2.1553,2.07709-4.0444,3.63379-5.6675
			c1.55557-1.622,3.38959-2.9106,5.50089-3.8672c2.11041-0.955,4.43359-1.4335,6.9678-1.4335c2.5332,0,4.8555,0.4785,6.9678,1.4335
			c2.11029,0.9566,3.92191,2.2569,5.43359,3.9009c1.51071,1.645,2.68939,3.5337,3.53421,5.6675
			c0.84369,2.1333,1.2666,4.4004,1.2666,6.8008c0,0.3564-0.01181,0.7114-0.0332,1.0669c-0.0235,0.3559-0.0567,0.6001-0.10062,0.7334
			h-29.66989c0.13281,1.8667,0.56641,3.5898,1.2998,5.1675c0.7334,1.5781,1.66699,2.9443,2.80069,4.1005
			c1.1329,1.1563,2.44339,2.0567,3.93359,2.7002c1.48831,0.6456,3.07721,0.9668,4.76761,0.9668
			c1.1553,0,2.28812-0.1552,3.40039-0.4668c1.11041-0.3105,2.13382-0.7334,3.06641-1.2666
			c0.93359-0.5332,1.76761-1.1894,2.50101-1.9668c0.7334-0.7773,1.2998-1.6337,1.7002-2.5673l3.93359,1.0673
			c-0.5332,1.2891-1.2901,2.4561-2.2666,3.5c-0.97849,1.045-2.1123,1.9571-3.40039,2.7334
			c-1.2901,0.7784-2.71191,1.378-4.26761,1.7998C406.5083,59.063,404.90869,59.2759,403.2641,59.2759z M416.06589,39.4058
			c-0.13281-1.8667-0.56641-3.5674-1.2998-5.1006c-0.7334-1.5337-1.66699-2.8555-2.80078-3.9673
			c-1.13382-1.1108-2.45609-1.9775-3.9668-2.6006c-1.51172-0.6215-3.1123-0.9331-4.80081-0.9331
			c-1.6904,0-3.29001,0.3116-4.80081,0.9331c-1.51169,0.6231-2.83389,1.4898-3.9668,2.6006
			c-1.13379,1.1118-2.04587,2.4453-2.73428,4.0005c-0.68951,1.5567-1.09961,3.2451-1.2334,5.0674H416.06589z"/>
		<path fill="#1D1D1B" d="M456.40378,58.6079h-4.53418V39.2056c0-4.1338-0.59961-7.1343-1.7998-9.001
			c-1.2002-1.8672-3.06741-2.8003-5.60059-2.8003c-1.33401,0-2.66699,0.2447-4.00101,0.7334
			c-1.33301,0.4898-2.57812,1.1783-3.7334,2.0669c-1.15723,0.8897-2.16702,1.9448-3.03421,3.167
			c-0.8671,1.2232-1.52338,2.5454-1.9668,3.9673v21.269h-4.53412V23.8702h4.13382v7.8681
			c0.71091-1.2441,1.58881-2.3891,2.6337-3.4341c1.04401-1.0439,2.211-1.9438,3.50101-2.7002
			c1.28809-0.7553,2.65527-1.3335,4.10059-1.7338c1.44342-0.4,2.94342-0.6001,4.5-0.6001c1.95612,0,3.5889,0.3564,4.90143,1.0668
			c1.31049,0.712,2.36618,1.712,3.16699,3.0005c0.79977,1.2901,1.37689,2.8672,1.73337,4.7339
			c0.35541,1.8672,0.5332,3.9341,0.5332,6.2012V58.6079z"/>
		<path fill="#1D1D1B" d="M463.53848,41.1392c0-2.4439,0.42191-4.7559,1.2666-6.9341c0.84381-2.1772,2.0332-4.0776,3.56741-5.7007
			c1.5332-1.622,3.36719-2.9004,5.50098-3.834c2.13281-0.9335,4.48831-1.4003,7.06741-1.4003c3.289,0,6.15619,0.7451,8.60059,2.2338
			c2.44431,1.4898,4.289,3.5005,5.53412,6.0342l-4.4003,1.3999c-0.97861-1.7768-2.33401-3.167-4.06741-4.167
			s-3.66699-1.5-5.80078-1.5c-1.77832,0-3.43362,0.356-4.9668,1.0664c-1.53421,0.712-2.86722,1.6787-4.00101,2.9004
			c-1.13382,1.2232-2.02341,2.6787-2.66699,4.3677c-0.6445,1.6895-0.96683,3.5337-0.96683,5.5337c0,1.9565,0.33301,3.8008,1,5.5342
			c0.66702,1.7339,1.57721,3.2339,2.73441,4.501c1.15533,1.2666,2.5,2.2666,4.0332,3c1.53421,0.7333,3.16699,1.0996,4.9014,1.0996
			c1.11032,0,2.2099-0.1543,3.2998-0.4659c1.08881-0.3105,2.10062-0.7441,3.03421-1.2998
			c0.93359-0.5556,1.7334-1.1894,2.4003-1.9004c0.66611-0.7109,1.1329-1.4668,1.39951-2.2675l4.40128,1.334
			c-0.4902,1.2441-1.2002,2.3896-2.13379,3.4335c-0.93359,1.045-2.03409,1.9571-3.30069,2.7334
			c-1.2666,0.7784-2.66702,1.378-4.2002,1.7998c-1.53421,0.4219-3.12311,0.6348-4.76761,0.6348
			c-2.5332,0-4.86722-0.4785-7.00101-1.4336c-2.13379-0.956-3.97849-2.2676-5.53421-3.9346
			c-1.55658-1.6669-2.7666-3.5888-3.63379-5.7675C463.97208,45.9629,463.53848,43.6294,463.53848,41.1392z"/>
		<path fill="#1D1D1B" d="M517.67822,59.2759c-2.53326,0-4.86725-0.4785-7.00101-1.4336
			c-2.13382-0.956-3.97852-2.2676-5.53424-3.9346c-1.55658-1.6669-2.7666-3.5888-3.63376-5.7675
			c-0.86624-2.1773-1.29984-4.5108-1.29984-7.001c0-2.4439,0.43359-4.7441,1.29984-6.9009
			c0.86716-2.1553,2.07718-4.0444,3.63376-5.6675c1.55573-1.622,3.38971-2.9106,5.50101-3.8672
			c2.11041-0.955,4.43359-1.4335,6.96783-1.4335c2.53314,0,4.85541,0.4785,6.96777,1.4335
			c2.11029,0.9566,3.92181,2.2569,5.43347,3.9009c1.5108,1.645,2.68951,3.5337,3.53424,5.6675
			c0.84381,2.1333,1.2666,4.4004,1.2666,6.8008c0,0.3564-0.01172,0.7114-0.0332,1.0669
			c-0.02344,0.3559-0.05664,0.6001-0.10059,0.7334h-29.66992c0.13278,1.8667,0.56641,3.5898,1.2998,5.1675
			c0.7334,1.5781,1.66699,2.9443,2.80078,4.1005c1.13281,1.1563,2.44342,2.0567,3.93359,2.7002
			c1.48834,0.6456,3.07709,0.9668,4.76764,0.9668c1.15521,0,2.28809-0.1552,3.40039-0.4668
			c1.11029-0.3105,2.13379-0.7334,3.06641-1.2666c0.93359-0.5332,1.76746-1.1894,2.50085-1.9668
			c0.7334-0.7773,1.29993-1.6337,1.7002-2.5673l3.93365,1.0673c-0.5332,1.2891-1.29004,2.4561-2.2666,3.5
			c-0.97852,1.045-2.1123,1.9571-3.40045,2.7334c-1.28998,0.7784-2.71185,1.378-4.26746,1.7998
			C520.9223,59.063,519.32269,59.2759,517.67822,59.2759z M530.47986,39.4058c-0.13275-1.8667-0.56635-3.5674-1.29974-5.1006
			c-0.7334-1.5337-1.66705-2.8555-2.80072-3.9673c-1.13379-1.1108-2.45612-1.9775-3.9668-2.6006
			c-1.51184-0.6215-3.1123-0.9331-4.80078-0.9331c-1.69055,0-3.2901,0.3116-4.80084,0.9331
			c-1.51169,0.6231-2.83398,1.4898-3.96677,2.6006c-1.13382,1.1118-2.04593,2.4453-2.73441,4.0005
			c-0.68942,1.5567-1.09961,3.2451-1.23343,5.0674H530.47986z"/>
	</g>
</g>
</svg>
