<?xml version="1.0" encoding="utf-8"?>
<!-- Generator: Adobe Illustrator 18.1.1, SVG Export Plug-In . SVG Version: 6.00 Build 0)  -->
<svg version="1.1" id="Layer_1" xmlns="http://www.w3.org/2000/svg" xmlns:xlink="http://www.w3.org/1999/xlink" x="0px" y="0px"
	 viewBox="0 503.1 1080 913.9" enable-background="new 0 503.1 1080 913.9" xml:space="preserve">
<rect x="132" y="627" fill="#FFFFFF" width="832" height="670"/>
<g>
	<g>
		<path fill="#1D1D1B" d="M812.9,735.5h-2H626.1h-2c-14.9,0-27,12.1-27,26.9v19.8c0,0,0,0.1,0,0.1v135.8c0,0,0,0.1,0,0.1v19.7
			c0,14.9,12.1,26.9,27,26.9h2H811h2c14.9,0,27-12.1,27-26.9V762.4C839.9,747.5,827.8,735.5,812.9,735.5z"/>
		<path fill="#1D1D1B" d="M454.3,955.4c11.3-5.8,21-13.9,29.1-24.4c8.1-10.4,14.5-22.6,19.1-36.5c4.6-13.7,6.9-28.8,6.9-45.4
			c-0.1-17.1-2.7-32.6-7.8-46.3c-5.2-13.9-12.5-26-21.7-36.1c-9.3-10.1-19.9-18-31.8-23.5c-11.9-5.5-24.2-8.3-37-8.3l-155.7-1.4
			v230.5h160.9C430.3,964.1,442.9,961.2,454.3,955.4z"/>
		<path fill="#1D1D1B" d="M1032.5,503.1H47.5C21.3,503.1,0,524.3,0,550.5v819c0,26.2,21.3,47.5,47.5,47.5h985.1
			c26.2,0,47.5-21.3,47.5-47.5v-819C1080,524.3,1058.7,503.1,1032.5,503.1z M933,1004.6c0,26.2-19.1,45.6-45.4,47.5l0,0v213.8h-95.4
			v-213.8H556.5c-18.7,0-34.9-10.8-42.6-26.5c0,0,0,0,0.1-0.8c-5,3-10.1,5.8-15.4,8.5c-22.9,11.3-48.3,17-76.1,17h-167V1265h-97.4
			V647.4h259.2c27.8,0,53.5,5.8,77,17.4c6.6,3.3,12.4,7.9,19,10.6l0.6-0.6c7.7-15.8,23.9-26.7,42.7-26.7h329
			c26.2,0,47.5,21.2,47.5,47.5V1004.6z"/>
	</g>
</g>
</svg>
