<?xml version="1.0" encoding="utf-8"?>
<!-- Generator: Adobe Illustrator 18.1.1, SVG Export Plug-In . SVG Version: 6.00 Build 0)  -->
<svg version="1.1" id="Layer_1" xmlns="http://www.w3.org/2000/svg" xmlns:xlink="http://www.w3.org/1999/xlink" x="0px" y="0px"
	 viewBox="242.3 339.5 1037.7 118.1" enable-background="new 242.3 339.5 1037.7 118.1" xml:space="preserve">
<g>
	<path fill="#1D1D1B" d="M242.3,456V342.7h46.9c4.9,0,9.4,1,13.5,3.1c4.1,2.1,7.6,4.8,10.6,8.1c3,3.4,5.3,7.2,6.9,11.4
		c1.6,4.3,2.5,8.6,2.5,12.9c0,4.7-0.8,9.2-2.3,13.5c-1.5,4.3-3.8,8.1-6.6,11.4c-2.9,3.3-6.3,6-10.3,8c-4,2-8.4,3-13.3,3h-36.9V456
		C253.3,456,242.3,456,242.3,456z M253.3,404.3h36.2c3.3,0,6.3-0.7,9-2.2c2.7-1.4,5-3.4,6.9-5.7c1.9-2.4,3.4-5.2,4.5-8.3
		c1.1-3.1,1.6-6.4,1.6-9.8c0-3.5-0.6-6.8-1.8-10c-1.2-3.1-2.9-5.9-4.9-8.2c-2.1-2.3-4.5-4.2-7.3-5.5c-2.8-1.3-5.8-2-8.9-2h-35.3
		L253.3,404.3L253.3,404.3z"/>
	<path fill="#1D1D1B" d="M338.7,355.4v-16h10.9v16H338.7z M338.7,456v-83.1h10.9V456C349.5,456,338.7,456,338.7,456z"/>
	<path fill="#1D1D1B" d="M373.3,339.5h10.9v97.7c0,3.1,0.9,5.5,2.6,7.3c1.7,1.8,4.1,2.6,7.2,2.6c1.2,0,2.6-0.2,4.1-0.5
		c1.6-0.3,3.1-0.7,4.5-1.3l1.9,8.8c-2,0.9-4.5,1.5-7.4,2.1c-2.9,0.5-5.5,0.8-7.6,0.8c-5,0-8.9-1.4-11.8-4.2
		c-2.9-2.8-4.3-6.8-4.3-11.9V339.5z"/>
	<path fill="#1D1D1B" d="M450.7,457.6c-6.1,0-11.6-1.1-16.7-3.4c-5.1-2.3-9.4-5.4-13.1-9.3c-3.7-3.9-6.5-8.5-8.5-13.7
		c-2-5.2-3-10.7-3-16.4c0-5.8,1-11.4,3.1-16.6c2.1-5.2,4.9-9.8,8.6-13.7c3.7-3.9,8-7.1,13.1-9.4c5.1-2.3,10.6-3.5,16.5-3.5
		c6,0,11.5,1.2,16.5,3.5c5.1,2.3,9.4,5.5,13.1,9.4c3.7,3.9,6.5,8.5,8.6,13.7c2.1,5.2,3.1,10.7,3.1,16.6c0,5.7-1,11.2-3.1,16.4
		c-2.1,5.2-4.9,9.8-8.6,13.7c-3.7,3.9-8,7-13.1,9.3C462.1,456.4,456.6,457.6,450.7,457.6z M420.5,414.8c0,4.7,0.8,9,2.3,13
		c1.5,4,3.7,7.5,6.4,10.5c2.7,3,5.9,5.4,9.6,7.1c3.7,1.7,7.6,2.6,11.7,2.6c4.1,0,8.1-0.9,11.7-2.6c3.7-1.8,6.9-4.1,9.7-7.2
		c2.8-3,4.9-6.6,6.5-10.6c1.6-4,2.4-8.4,2.4-13.1c0-4.6-0.8-8.9-2.4-13c-1.6-4.1-3.8-7.7-6.5-10.7c-2.8-3-6-5.4-9.6-7.2
		c-3.6-1.8-7.5-2.6-11.6-2.6c-4.1,0-8.1,0.9-11.7,2.6c-3.7,1.8-6.9,4.2-9.6,7.3c-2.7,3.1-4.9,6.7-6.5,10.8
		C421.3,405.7,420.5,410.1,420.5,414.8z"/>
	<path fill="#1D1D1B" d="M548.7,452c-0.6,0.3-1.6,0.7-2.8,1.3c-1.2,0.5-2.6,1.1-4.2,1.6c-1.6,0.5-3.4,1-5.4,1.4
		c-2,0.4-4.1,0.6-6.4,0.6c-2.3,0-4.6-0.3-6.7-1c-2.1-0.6-4-1.6-5.6-2.9c-1.6-1.3-2.9-3-3.8-5c-1-2-1.4-4.4-1.4-7v-59.5h-11.5v-8.6
		h11.5v-28.1h10.9v28.1h19.1v8.6h-19.1v56.5c0.2,3.1,1.3,5.3,3.2,6.8c1.9,1.4,4.2,2.2,6.9,2.2c3.1,0,5.8-0.5,8.1-1.5
		c2.3-1,3.8-1.7,4.5-2.2L548.7,452z"/>
	<path fill="#1D1D1B" d="M605,456V342.7h46.9c4.9,0,9.4,1,13.5,3.1c4.1,2.1,7.6,4.8,10.6,8.1c3,3.4,5.3,7.2,6.9,11.4
		c1.6,4.3,2.5,8.6,2.5,12.9c0,4.7-0.8,9.2-2.3,13.5c-1.5,4.3-3.8,8.1-6.6,11.4c-2.9,3.3-6.3,6-10.3,8c-4,2-8.4,3-13.3,3H616V456
		C616,456,605,456,605,456z M616,404.3h36.2c3.3,0,6.3-0.7,9-2.2c2.7-1.4,5-3.4,6.9-5.7c1.9-2.4,3.4-5.2,4.5-8.3
		c1.1-3.1,1.6-6.4,1.6-9.8c0-3.5-0.6-6.8-1.8-10c-1.2-3.1-2.9-5.9-4.9-8.2c-2.1-2.3-4.5-4.2-7.3-5.5c-2.8-1.3-5.8-2-8.9-2H616V404.3
		z"/>
	<path fill="#1D1D1B" d="M742.9,382.4c-7.3,0.2-13.7,2.2-19.1,6.1c-5.4,3.8-9.3,9.1-11.5,15.8V456h-10.9v-83.1h10.2v19.9
		c2.9-5.8,6.6-10.7,11.3-14.6c4.7-3.9,9.7-5.8,15.2-5.8c1,0,1.9,0,2.7,0c0.9,0,1.5,0.1,2.1,0.2V382.4z"/>
	<path fill="#1D1D1B" d="M793.8,457.6c-6.1,0-11.6-1.1-16.8-3.4c-5.1-2.3-9.5-5.4-13.2-9.4c-3.7-4-6.6-8.6-8.7-13.8
		c-2.1-5.2-3.1-10.8-3.1-16.8c0-5.8,1-11.4,3.1-16.5c2.1-5.2,5-9.7,8.7-13.6c3.7-3.9,8.1-7,13.2-9.3c5.1-2.3,10.6-3.4,16.7-3.4
		c6.1,0,11.6,1.1,16.7,3.4c5.1,2.3,9.4,5.4,13,9.3c3.6,3.9,6.4,8.5,8.5,13.6c2,5.1,3,10.5,3,16.3c0,0.9,0,1.7-0.1,2.6
		c-0.1,0.9-0.1,1.4-0.2,1.8h-71c0.3,4.5,1.4,8.6,3.1,12.4c1.8,3.8,4,7,6.7,9.8c2.7,2.8,5.8,4.9,9.4,6.5c3.6,1.5,7.4,2.3,11.4,2.3
		c2.8,0,5.5-0.4,8.1-1.1c2.7-0.7,5.1-1.8,7.3-3c2.2-1.3,4.2-2.8,6-4.7c1.8-1.9,3.1-3.9,4.1-6.1l9.4,2.6c-1.3,3.1-3.1,5.9-5.4,8.4
		c-2.3,2.5-5.1,4.7-8.1,6.5c-3.1,1.9-6.5,3.3-10.2,4.3C801.5,457.1,797.7,457.6,793.8,457.6z M824.4,410c-0.3-4.5-1.4-8.5-3.1-12.2
		c-1.8-3.7-4-6.8-6.7-9.5c-2.7-2.7-5.9-4.7-9.5-6.2c-3.6-1.5-7.4-2.2-11.5-2.2c-4,0-7.9,0.7-11.5,2.2c-3.6,1.5-6.8,3.6-9.5,6.2
		c-2.7,2.7-4.9,5.9-6.5,9.6c-1.7,3.7-2.6,7.8-3,12.1H824.4z"/>
	<path fill="#1D1D1B" d="M879,457.6c-6.5,0-12.8-1.1-19-3.2c-6.2-2.1-11.5-5.2-16-9.3l4.9-7.3c4.7,3.8,9.4,6.7,14.3,8.6
		c4.8,1.9,10,2.9,15.6,2.9c6.7,0,12-1.4,16-4.1c4-2.7,6-6.6,6-11.6c0-2.3-0.5-4.3-1.6-5.8c-1.1-1.5-2.6-2.9-4.7-4.1
		c-2.1-1.2-4.7-2.2-7.8-3.1c-3.1-0.9-6.8-1.8-10.9-2.8c-4.8-1.2-8.9-2.3-12.4-3.5c-3.5-1.2-6.4-2.5-8.7-4c-2.3-1.5-4-3.3-5.1-5.5
		c-1.1-2.2-1.7-4.9-1.7-8.2c0-4.1,0.8-7.8,2.5-11c1.6-3.2,3.9-5.8,6.7-7.9c2.8-2.1,6.1-3.6,9.9-4.7c3.8-1.1,7.8-1.6,12-1.6
		c6.4,0,12.2,1,17.4,3.1c5.2,2.1,9.4,4.8,12.6,8.2l-5.3,6.4c-3.1-3.2-6.8-5.6-11.2-7.2c-4.4-1.6-9-2.4-13.8-2.4
		c-2.9,0-5.5,0.3-8,0.9c-2.4,0.6-4.6,1.5-6.5,2.8c-1.9,1.3-3.3,2.9-4.4,4.9c-1.1,2-1.6,4.3-1.6,6.9c0,2.2,0.4,4,1.1,5.4
		c0.7,1.4,2,2.6,3.7,3.6c1.7,1,3.9,1.9,6.5,2.7c2.6,0.8,5.8,1.6,9.5,2.5c5.3,1.3,10,2.6,14,3.8c4,1.3,7.4,2.8,10.1,4.5
		c2.7,1.7,4.8,3.8,6.1,6.2c1.4,2.4,2.1,5.4,2.1,8.9c0,7.7-2.9,13.7-8.8,18.2C896.7,455.3,888.9,457.6,879,457.6z"/>
	<path fill="#1D1D1B" d="M965.2,457.6c-6.1,0-11.6-1.1-16.8-3.4c-5.1-2.3-9.5-5.4-13.2-9.4c-3.7-4-6.6-8.6-8.7-13.8
		c-2.1-5.2-3.1-10.8-3.1-16.8c0-5.8,1-11.4,3.1-16.5c2.1-5.2,5-9.7,8.7-13.6c3.7-3.9,8.1-7,13.2-9.3c5.1-2.3,10.6-3.4,16.7-3.4
		c6.1,0,11.6,1.1,16.7,3.4c5.1,2.3,9.4,5.4,13,9.3c3.6,3.9,6.4,8.5,8.5,13.6c2,5.1,3,10.5,3,16.3c0,0.9,0,1.7-0.1,2.6
		c-0.1,0.9-0.1,1.4-0.2,1.8h-71c0.3,4.5,1.4,8.6,3.1,12.4c1.8,3.8,4,7,6.7,9.8c2.7,2.8,5.8,4.9,9.4,6.5c3.6,1.5,7.4,2.3,11.4,2.3
		c2.8,0,5.5-0.4,8.1-1.1c2.7-0.7,5.1-1.8,7.3-3c2.2-1.3,4.2-2.8,6-4.7c1.8-1.9,3.1-3.9,4.1-6.1l9.4,2.6c-1.3,3.1-3.1,5.9-5.4,8.4
		c-2.3,2.5-5.1,4.7-8.1,6.5c-3.1,1.9-6.5,3.3-10.2,4.3C972.9,457.1,969.1,457.6,965.2,457.6z M995.8,410c-0.3-4.5-1.4-8.5-3.1-12.2
		c-1.8-3.7-4-6.8-6.7-9.5c-2.7-2.7-5.9-4.7-9.5-6.2c-3.6-1.5-7.4-2.2-11.5-2.2c-4,0-7.9,0.7-11.5,2.2c-3.6,1.5-6.8,3.6-9.5,6.2
		c-2.7,2.7-4.9,5.9-6.5,9.6c-1.7,3.7-2.6,7.8-3,12.1H995.8z"/>
	<path fill="#1D1D1B" d="M1092.3,456h-10.9v-46.4c0-9.9-1.4-17.1-4.3-21.5c-2.9-4.5-7.3-6.7-13.4-6.7c-3.2,0-6.4,0.6-9.6,1.8
		c-3.2,1.2-6.2,2.8-8.9,4.9c-2.8,2.1-5.2,4.7-7.3,7.6c-2.1,2.9-3.6,6.1-4.7,9.5V456h-10.9v-83.1h9.9v18.8c1.7-3,3.8-5.7,6.3-8.2
		c2.5-2.5,5.3-4.7,8.4-6.5c3.1-1.8,6.4-3.2,9.8-4.1c3.5-1,7-1.4,10.8-1.4c4.7,0,8.6,0.9,11.7,2.6c3.1,1.7,5.7,4.1,7.6,7.2
		c1.9,3.1,3.3,6.9,4.1,11.3c0.9,4.5,1.3,9.4,1.3,14.8V456z"/>
	<path fill="#1D1D1B" d="M1109.4,414.2c0-5.8,1-11.4,3-16.6c2-5.2,4.9-9.8,8.5-13.6c3.7-3.9,8.1-6.9,13.2-9.2
		c5.1-2.2,10.7-3.4,16.9-3.4c7.9,0,14.7,1.8,20.6,5.3c5.9,3.6,10.3,8.4,13.2,14.4l-10.5,3.4c-2.3-4.3-5.6-7.6-9.7-10
		c-4.1-2.4-8.8-3.6-13.9-3.6c-4.3,0-8.2,0.9-11.9,2.6c-3.7,1.7-6.9,4-9.6,6.9c-2.7,2.9-4.8,6.4-6.4,10.5c-1.5,4-2.3,8.5-2.3,13.2
		c0,4.7,0.8,9.1,2.4,13.2c1.6,4.1,3.8,7.7,6.5,10.8c2.8,3,6,5.4,9.7,7.2c3.7,1.8,7.6,2.6,11.7,2.6c2.7,0,5.3-0.4,7.9-1.1
		c2.6-0.7,5-1.8,7.3-3.1c2.2-1.3,4.1-2.8,5.7-4.5c1.6-1.7,2.7-3.5,3.3-5.4l10.5,3.2c-1.2,3-2.9,5.7-5.1,8.2
		c-2.2,2.5-4.9,4.7-7.9,6.5c-3,1.9-6.4,3.3-10.1,4.3c-3.7,1-7.5,1.5-11.4,1.5c-6.1,0-11.6-1.1-16.8-3.4c-5.1-2.3-9.5-5.4-13.2-9.4
		c-3.7-4-6.6-8.6-8.7-13.8C1110.5,425.7,1109.4,420.1,1109.4,414.2z"/>
	<path fill="#1D1D1B" d="M1239,457.6c-6.1,0-11.6-1.1-16.8-3.4c-5.1-2.3-9.5-5.4-13.2-9.4c-3.7-4-6.6-8.6-8.7-13.8
		c-2.1-5.2-3.1-10.8-3.1-16.8c0-5.8,1-11.4,3.1-16.5c2.1-5.2,5-9.7,8.7-13.6c3.7-3.9,8.1-7,13.2-9.3c5.1-2.3,10.6-3.4,16.7-3.4
		c6.1,0,11.6,1.1,16.7,3.4c5.1,2.3,9.4,5.4,13,9.3c3.6,3.9,6.4,8.5,8.5,13.6c2,5.1,3,10.5,3,16.3c0,0.9,0,1.7-0.1,2.6
		c-0.1,0.9-0.1,1.4-0.2,1.8h-71c0.3,4.5,1.4,8.6,3.1,12.4c1.8,3.8,4,7,6.7,9.8c2.7,2.8,5.8,4.9,9.4,6.5c3.6,1.5,7.4,2.3,11.4,2.3
		c2.8,0,5.5-0.4,8.1-1.1c2.7-0.7,5.1-1.8,7.3-3c2.2-1.3,4.2-2.8,6-4.7c1.8-1.9,3.1-3.9,4.1-6.1l9.4,2.6c-1.3,3.1-3.1,5.9-5.4,8.4
		c-2.3,2.5-5.1,4.7-8.1,6.5c-3.1,1.9-6.5,3.3-10.2,4.3C1246.8,457.1,1242.9,457.6,1239,457.6z M1269.6,410
		c-0.3-4.5-1.4-8.5-3.1-12.2c-1.8-3.7-4-6.8-6.7-9.5c-2.7-2.7-5.9-4.7-9.5-6.2c-3.6-1.5-7.4-2.2-11.5-2.2c-4,0-7.9,0.7-11.5,2.2
		c-3.6,1.5-6.8,3.6-9.5,6.2c-2.7,2.7-4.9,5.9-6.5,9.6c-1.7,3.7-2.6,7.8-3,12.1H1269.6z"/>
</g>
</svg>
